<svg width="150" height="46" viewBox="0 0 150 46" fill="none" xmlns="http://www.w3.org/2000/svg">
<path d="M45.8002 21.459H36.6406V24.5236H45.8002V21.459Z" fill="#FFFEFC"/>
<path d="M15.2622 3.06836H12.2109V12.2636H15.2622V3.06836Z" fill="#FFFEFC"/>
<path d="M24.4277 0H21.375V21.458H24.4277V0Z" fill="#FFFEFC"/>
<path d="M33.584 18.3921H30.5312V30.6548H33.584V18.3906V18.3921Z" fill="#FFFEFC"/>
<path d="M42.7445 30.6523H27.4766V33.7169H42.7445V30.6523Z" fill="#FFFEFC"/>
<path d="M30.5341 21.459H18.3203V24.5236H30.5355L30.5341 21.459Z" fill="#FFFEFC"/>
<path d="M21.3739 12.2617H3.05469V15.3263H21.3739V12.2617Z" fill="#FFFEFC"/>
<path d="M15.2622 18.3921H12.2109V30.6548H15.2622V18.3906V18.3921Z" fill="#FFFEFC"/>
<path d="M24.4277 27.5898H21.375V45.9803H24.4277V27.5898Z" fill="#FFFEFC"/>
<path d="M21.3739 30.6523H3.05469V33.7169H21.3739V30.6523Z" fill="#FFFEFC"/>
<path d="M12.2152 21.459H0V24.5236H12.2152V21.459Z" fill="#FFFEFC"/>
<path d="M15.2622 36.7852H12.2109V42.9172H15.2622V36.7852Z" fill="#FFFEFC"/>
<path d="M33.584 36.7861H30.5312V42.9182H33.584V36.7861ZM33.584 3.06836H30.5312V12.2636H33.584V3.06836Z" fill="#FFFEFC"/>
<path d="M42.7445 12.2617H27.4766V15.3263H42.7445V12.2617Z" fill="#FFFEFC"/>
<path d="M68.5708 25.3982H61.0703V42.9172H63.8974V35.938H68.5722C71.7706 35.938 73.6453 33.8552 73.6453 30.6688C73.6453 27.4824 71.7691 25.3982 68.5708 25.3982ZM70.6726 31.2708C70.6726 32.6756 69.8216 33.4539 68.3952 33.4539H63.8974V27.8823H68.3952C69.8216 27.8823 70.6726 28.6606 70.6726 30.0668V31.2708ZM85.2937 34.1319C85.2937 31.2192 83.4189 29.5651 80.0678 29.5651C77.5448 29.5651 76.0184 30.643 75.1674 32.0993L76.7952 33.5815C77.4448 32.5537 78.3701 31.7998 79.8936 31.7998C81.7169 31.7998 82.5679 32.73 82.5679 34.3082V35.4119H80.2163C76.5896 35.4119 74.6648 36.7421 74.6648 39.3251C74.6648 41.683 76.1912 43.2153 78.8655 43.2153C81.1315 43.2153 82.3095 42.0944 82.7907 40.7327C82.9663 42.0113 83.7173 42.9172 85.1395 42.9172H87.2898V40.6811H85.2908V34.1319H85.2937ZM82.5679 39.0527C82.5679 40.3328 81.3186 41.1355 79.6409 41.1355C78.2915 41.1355 77.442 40.5334 77.442 39.381V38.9295C77.442 37.8014 78.3672 37.175 80.2662 37.175H82.5679V39.0556V39.0527ZM124.322 29.5622C120.621 29.5622 118.348 32.2226 118.348 36.3881C118.348 40.5549 120.624 43.2153 124.322 43.2153C126.747 43.2153 128.65 42.1632 129.623 40.5807L128.022 38.9983C127.271 40.2023 126.197 40.9563 124.597 40.9563C122.395 40.9563 121.17 39.5243 121.17 37.5161V37.0919H130.097V36.0641C130.097 32.4491 128.148 29.5651 124.322 29.5651V29.5622ZM127.224 35.2858H121.174V35.1095C121.174 33.1027 122.449 31.6951 124.322 31.6951C126.197 31.6951 127.224 33.0253 127.224 35.0335V35.2858ZM145.881 35.2356L144.682 35.0837C143.307 34.8572 142.682 34.4057 142.682 33.4009C142.682 32.3946 143.381 31.7668 144.883 31.7668C146.283 31.7668 147.382 32.4448 148.057 33.2489L149.729 31.6421C148.556 30.3377 147.231 29.5579 144.879 29.5579C142.028 29.5579 140.053 31.0401 140.053 33.5729C140.053 36.1071 141.679 37.1377 144.329 37.4631L145.529 37.6136C146.879 37.7914 147.378 38.4178 147.378 39.2477C147.378 40.35 146.577 41.0022 145.005 41.0022C143.433 41.0022 142.279 40.2998 141.328 39.1459L139.579 40.7542C140.804 42.2851 142.405 43.2125 144.853 43.2125C147.977 43.2125 150.002 41.5282 150.002 39.0198C150.002 36.9113 148.729 35.657 145.877 35.2313L145.881 35.2356ZM100.297 32.2627H103.796L103.817 32.247V29.8647H100.297V26.2998H97.8487V27.9511C97.8487 29.2153 97.3675 29.8647 95.2215 29.8647C93.6451 29.8647 92.2944 30.3979 91.4877 31.5374V29.8647H88.7833V42.9172H91.4877V32.3115L97.576 32.2656V40.0834C97.576 41.8636 98.5783 42.9215 100.453 42.9215H103.914V40.6854H100.302V32.2656L100.299 32.2613L100.297 32.2627ZM108.103 32.3344C108.103 32.3344 109.239 32.2771 111.066 32.2771C113.017 32.2771 113.558 33.1084 113.558 34.4673V42.9172H116.284V34.6321C116.284 31.4213 114.736 29.6769 112.086 29.6769C110.424 29.6769 109.333 30.1456 108.108 31.5002V29.8647H105.382V42.9157H108.108V32.3344H108.103ZM134.868 32.3344L139.375 32.2685V29.6798C137.303 29.5579 136.179 30.0381 134.868 31.5045V29.8675H132.143V42.92H134.868V32.3344ZM71.3436 13.8608C71.3436 16.8236 70.3199 18.3516 67.5956 18.3516C64.8698 18.3516 63.846 16.8193 63.846 13.8608V3.06732H61.0703V13.4093C61.0703 18.5279 62.8194 20.8887 67.5956 20.8887C72.3703 20.8887 74.1194 18.5322 74.1194 13.4093V3.06875H71.3436V13.8608ZM109.888 11.8024C109.888 8.88978 108.015 7.23564 104.664 7.23564C102.141 7.23564 100.614 8.31212 99.7635 9.76845L101.39 11.2506C102.039 10.2228 102.966 9.4703 104.488 9.4703C106.313 9.4703 107.164 10.3991 107.164 11.9787V13.0825H104.809C101.183 13.0825 99.2594 14.4112 99.2594 16.9956C99.2594 19.3536 100.786 20.8859 103.46 20.8859C105.726 20.8859 106.904 19.765 107.384 18.4018C107.561 19.6818 108.312 20.5863 109.733 20.5863H111.884V18.3502H109.884V11.8024H109.888ZM107.164 16.7219C107.164 18.0019 105.913 18.806 104.237 18.806C102.888 18.806 102.037 18.204 102.037 17.0501V16.6C102.037 15.4719 102.962 14.8441 104.862 14.8441H107.164V16.7262V16.7219ZM116.125 10.0035C116.125 10.0035 117.26 9.94619 119.088 9.94619C121.038 9.94619 121.579 10.7776 121.579 12.1379V20.5863H124.305V12.3027C124.305 9.09189 122.757 7.34744 120.107 7.34744C118.445 7.34744 117.354 7.81616 116.129 9.17072V7.53378H113.404V20.5863H116.129V10.0035H116.125ZM96.2367 9.05605C95.34 7.86203 94.0678 7.26431 92.4201 7.26431C91.5548 7.26431 90.8052 7.47645 90.1626 7.90217C89.523 8.32789 89.0603 8.93278 88.779 9.71828H88.6534V3.06445H85.9362V20.5834H88.6534V19.2461C89.4801 20.1921 90.4639 20.7655 92.4201 20.7655C94.0649 20.7655 95.34 20.2867 96.2367 19.0941C97.1362 17.9015 97.5831 16.2273 97.5831 14.0729C97.5831 11.9171 97.1348 10.2486 96.2367 9.05175V9.05605ZM94.7146 15.201C94.7146 16.2044 94.4319 17.0071 93.8679 17.6163C93.3039 18.2255 92.5457 18.5279 91.5976 18.5279H88.6534V11.8454C88.6534 11.1789 88.9375 10.6414 89.5015 10.23C90.0655 9.82292 90.7652 9.61794 91.5948 9.61794C92.5428 9.61794 93.2996 9.92469 93.865 10.5296C94.4276 11.1388 94.7118 11.9429 94.7118 12.9449V15.1982L94.7146 15.201ZM80.202 10.0035L84.7083 9.93902V7.35031C82.6365 7.22847 81.5128 7.70866 80.202 9.17502V7.53665H77.4762V20.5892H80.202V10.0035Z" fill="#FFFEFC"/>
<path d="M45.8002 21.459H36.6406V24.5236H45.8002V21.459Z" fill="#FFFEFC"/>
<path d="M15.2622 3.06836H12.2109V12.2636H15.2622V3.06836Z" fill="#FFFEFC"/>
<path d="M24.4277 0H21.375V21.458H24.4277V0Z" fill="#FFFEFC"/>
<path d="M33.584 18.3921H30.5312V30.6548H33.584V18.3906V18.3921Z" fill="#FFFEFC"/>
<path d="M42.7445 30.6523H27.4766V33.7169H42.7445V30.6523Z" fill="#FFFEFC"/>
<path d="M30.5341 21.459H18.3203V24.5236H30.5355L30.5341 21.459Z" fill="#FFFEFC"/>
<path d="M21.3739 12.2617H3.05469V15.3263H21.3739V12.2617Z" fill="#FFFEFC"/>
<path d="M15.2622 18.3921H12.2109V30.6548H15.2622V18.3906V18.3921Z" fill="#FFFEFC"/>
<path d="M24.4277 27.5898H21.375V45.9803H24.4277V27.5898Z" fill="#FFFEFC"/>
<path d="M21.3739 30.6523H3.05469V33.7169H21.3739V30.6523Z" fill="#FFFEFC"/>
<path d="M12.2152 21.459H0V24.5236H12.2152V21.459Z" fill="#FFFEFC"/>
<path d="M15.2622 36.7852H12.2109V42.9172H15.2622V36.7852Z" fill="#FFFEFC"/>
<path d="M33.584 36.7861H30.5312V42.9182H33.584V36.7861ZM33.584 3.06836H30.5312V12.2636H33.584V3.06836Z" fill="#FFFEFC"/>
<path d="M42.7445 12.2617H27.4766V15.3263H42.7445V12.2617Z" fill="#FFFEFC"/>
</svg>
